<?xml version="1.0" standalone="no"?>
<!DOCTYPE svg PUBLIC "-//W3C//DTD SVG 20010904//EN"
 "http://www.w3.org/TR/2001/REC-SVG-20010904/DTD/svg10.dtd">
<svg version="1.0" xmlns="http://www.w3.org/2000/svg"
 width="580.000000pt" height="200.000000pt" viewBox="0 0 580.000000 200.000000"
 preserveAspectRatio="xMidYMid meet">

<g transform="translate(0.000000,200.000000) scale(0.100000,-0.100000)"
fill="#000000" stroke="none">
<path d="M181 1924 c-58 -29 -104 -84 -122 -143 -7 -24 -9 -292 -7 -802 l3
-766 30 -49 c19 -30 49 -60 79 -79 l49 -30 2687 0 2687 0 49 30 c30 19 60 49
79 79 l30 49 0 787 0 787 -30 49 c-19 30 -49 60 -79 79 l-49 30 -2677 3 -2676
2 -53 -26z m5393 -26 c52 -16 108 -72 124 -124 17 -59 17 -1489 0 -1548 -16
-52 -72 -108 -124 -124 -60 -18 -5288 -18 -5348 0 -52 16 -108 72 -124 124
-17 59 -17 1489 0 1548 15 49 71 108 118 123 53 17 5298 17 5354 1z"/>
<path d="M280 1772 c-73 -36 -70 -6 -70 -772 0 -766 -3 -736 70 -772 33 -17
105 -18 1083 -18 1126 0 1075 -2 1122 50 19 21 20 40 25 446 3 233 2 424 -2
424 -4 0 -10 -4 -13 -10 -3 -5 -24 -14 -47 -21 -80 -21 -169 37 -183 120 -9
54 22 123 67 151 39 24 111 26 148 5 14 -8 27 -14 30 -15 3 0 3 81 0 179 -4
161 -7 181 -25 201 -47 52 4 50 -1122 50 -978 0 -1050 -1 -1083 -18z m885
-144 c33 -15 65 -76 65 -122 0 -29 -5 -38 -28 -50 -15 -8 -34 -26 -41 -40 -14
-25 -101 -64 -119 -52 -5 3 -13 -35 -18 -84 l-9 -88 47 -6 c26 -4 59 -13 75
-21 15 -8 36 -15 47 -15 10 0 58 -13 108 -30 49 -16 95 -30 101 -30 7 0 105
-36 217 -79 l205 -79 88 9 c49 5 92 11 97 14 18 11 37 -6 32 -30 -2 -15 -9
-22 -18 -18 -8 3 -14 1 -14 -5 0 -5 -17 -21 -37 -35 -21 -13 -56 -41 -77 -60
-35 -31 -42 -34 -68 -25 -16 6 -36 20 -44 33 -13 20 -25 23 -151 29 -95 5
-156 14 -196 27 -38 13 -110 24 -200 30 -77 5 -144 12 -148 15 -5 3 -25 2 -44
-2 l-35 -6 2 -187 c4 -292 22 -278 -416 -307 -89 -6 -89 -6 -137 -51 -34 -31
-55 -44 -71 -41 -36 5 -29 73 14 135 18 26 40 61 48 78 19 38 65 46 100 17 23
-19 24 -19 81 4 32 13 87 29 122 36 l64 12 -16 51 c-9 28 -26 63 -39 79 -37
47 -94 269 -76 297 3 5 0 16 -6 25 -17 19 -8 185 15 281 14 61 21 74 43 83 26
10 25 10 -7 5 -18 -3 -45 -5 -58 -5 -28 0 -163 -123 -163 -148 0 -24 -66 -82
-93 -82 -35 0 -43 17 -21 41 18 20 18 20 -9 14 -40 -10 -33 5 22 52 29 25 71
79 101 128 29 48 61 91 71 98 10 6 19 17 19 24 0 11 24 18 157 43 83 16 152 9
193 -20 l33 -23 20 27 c43 59 113 81 172 54z"/>
<path d="M2620 1540 l0 -250 153 0 c83 0 168 5 188 10 52 15 81 50 86 107 6
63 -9 101 -48 117 l-30 13 26 17 c29 19 55 71 55 108 0 37 -34 90 -71 110 -29
15 -58 18 -196 18 l-163 0 0 -250z m288 108 c4 -47 -18 -60 -91 -56 l-52 3 -3
48 -3 48 73 -3 73 -3 3 -37z m-3 -203 l0 -40 -72 -3 -73 -3 0 46 0 46 73 -3
72 -3 0 -40z"/>
<path d="M3111 1582 c3 -178 7 -212 22 -235 29 -44 72 -60 175 -65 111 -5 169
9 209 50 l28 29 3 215 3 214 -65 0 -66 0 0 -173 c0 -207 -4 -217 -81 -217 -91
0 -89 -6 -89 205 l0 185 -71 0 -71 0 3 -208z"/>
<path d="M3630 1540 l0 -250 65 0 65 0 0 183 c0 102 4 176 9 169 4 -8 37 -90
72 -183 l64 -169 113 0 112 0 0 250 0 250 -65 0 -65 0 0 -182 c0 -100 -3 -178
-7 -174 -5 4 -38 85 -74 179 l-67 172 -111 3 -111 3 0 -251z"/>
<path d="M4200 1540 l0 -250 162 0 c143 0 167 2 204 21 69 33 84 76 84 235 0
156 -11 187 -80 222 -40 20 -58 22 -207 22 l-163 0 0 -250z m304 108 c12 -16
16 -47 16 -109 0 -83 -1 -89 -26 -108 -21 -17 -41 -21 -95 -21 l-69 0 0 130 0
130 79 0 c71 0 82 -2 95 -22z"/>
<path d="M4720 1540 l0 -250 185 0 185 0 0 55 0 55 -115 0 -115 0 0 45 0 45
105 0 105 0 0 50 0 50 -105 0 -105 0 0 45 0 45 115 0 115 0 0 55 0 55 -185 0
-185 0 0 -250z"/>
<path d="M5235 1775 c-22 -8 -41 -15 -42 -15 -13 -1 -33 -71 -33 -115 0 -109
41 -144 183 -156 90 -7 117 -19 117 -48 0 -30 -23 -41 -85 -41 -63 0 -85 11
-85 42 0 16 -9 18 -66 18 l-67 0 5 -52 c9 -93 83 -133 233 -126 137 5 195 54
195 163 0 102 -38 133 -174 145 -100 8 -126 19 -126 51 0 25 30 39 84 39 43 0
76 -18 76 -41 0 -6 25 -9 58 -7 l57 3 -2 49 c-1 38 -7 55 -27 75 -25 25 -32
26 -144 29 -85 1 -128 -2 -157 -13z"/>
<path d="M2620 700 l0 -490 315 0 315 0 0 115 0 115 -185 0 -185 0 0 375 0
375 -130 0 -130 0 0 -490z"/>
<path d="M3360 700 l0 -490 135 0 135 0 0 490 0 490 -135 0 -135 0 0 -490z"/>
<path d="M4048 1179 c-154 -20 -246 -87 -283 -206 -22 -75 -33 -402 -16 -511
31 -201 137 -262 456 -262 364 0 425 59 425 412 l0 138 -215 0 -215 0 0 -87 0
-88 86 3 87 4 -5 -57 c-4 -44 -11 -62 -32 -83 -26 -26 -30 -27 -142 -27 -114
0 -116 0 -139 27 -32 37 -37 84 -33 292 l3 178 28 24 c26 22 36 24 143 24 64
0 123 -4 133 -10 10 -5 24 -23 31 -40 l12 -30 129 0 c147 0 137 -8 118 96 -16
88 -49 138 -111 168 -87 42 -289 57 -460 35z"/>
<path d="M4807 722 c-76 -257 -140 -477 -144 -490 l-5 -23 133 3 133 3 21 70
c11 39 24 76 28 83 6 9 53 12 177 12 l169 0 21 -72 c12 -40 23 -79 25 -85 3
-10 39 -13 135 -13 71 0 130 3 130 8 0 4 -63 224 -142 490 l-142 482 -200 0
-201 0 -138 -468z m398 61 c30 -106 55 -199 55 -208 0 -13 -18 -15 -115 -15
-84 0 -115 3 -115 12 0 17 112 409 116 405 2 -1 28 -89 59 -194z"/>
</g>
</svg>
